<?xml version="1.0" standalone="no"?><!DOCTYPE svg PUBLIC "-//W3C//DTD SVG 1.1//EN" "http://www.w3.org/Graphics/SVG/1.1/DTD/svg11.dtd"><svg height="1028" node-id="1" sillyvg="true" template-height="1028" template-width="1028" version="1.1" viewBox="0 0 1028 1028" width="1028" xmlns="http://www.w3.org/2000/svg" xmlns:xlink="http://www.w3.org/1999/xlink"><defs node-id="25"><radialGradient cx="0.34229487" cy="0.39613056" fx="0.34229487" fy="0.39613056" gradientUnits="objectBoundingBox" id="radialGradient-1" node-id="5" r="0.6764448" rev="3" spreadMethod="pad"><stop offset="0" stop-color="#81d76b"></stop><stop offset="1" stop-color="#2bb186"></stop></radialGradient><radialGradient cx="0.5901855" cy="0.21917053" fx="0.5901855" fy="0.21917053" gradientUnits="objectBoundingBox" id="radialGradient-2" node-id="8" r="1.2968956" rev="2" spreadMethod="pad"><stop offset="0" stop-color="#29af84"></stop><stop offset="1" stop-color="#64ca74"></stop></radialGradient><radialGradient cx="0.34229487" cy="0.39613056" fx="0.34229487" fy="0.39613056" gradientUnits="objectBoundingBox" id="radialGradient-3" node-id="11" r="0.94128346" rev="1" spreadMethod="pad"><stop offset="0" stop-color="#81d76b"></stop><stop offset="1" stop-color="#2bb186"></stop></radialGradient></defs><g node-id="44"><g node-id="45"><path d="M 697.30 194.50 L 708.20 194.80 L 718.90 195.50 L 729.30 196.70 L 739.60 198.40 L 749.80 200.60 L 759.90 203.20 L 769.70 206.20 L 779.30 209.60 L 788.70 213.50 L 797.90 217.80 L 807.00 222.50 L 815.70 227.50 L 824.20 232.90 L 832.50 238.70 L 840.40 244.80 L 848.10 251.30 L 855.50 258.00 L 862.60 265.10 L 869.40 272.50 L 875.90 280.20 L 882.00 288.20 L 887.80 296.40 L 893.20 304.90 L 898.20 313.70 L 902.90 322.70 L 907.20 331.90 L 911.00 341.30 L 914.50 350.90 L 917.50 360.80 L 920.10 370.90 L 922.20 381.00 L 923.90 391.30 L 925.10 401.80 L 925.90 412.50 L 926.10 423.30 L 925.80 435.20 L 925.00 446.70 L 923.50 458.10 L 921.60 469.20 L 919.00 480.10 L 916.00 491.00 L 912.40 501.60 L 908.40 511.90 L 903.90 521.90 L 898.90 531.70 L 893.50 541.30 L 887.60 550.50 L 881.30 559.40 L 874.60 568.00 L 867.50 576.30 L 860.00 584.30 L 852.20 591.80 L 844.00 599.00 L 835.50 605.80 L 826.60 612.20 L 817.40 618.20 L 808.00 623.70 L 798.30 628.80 L 788.30 633.40 L 777.90 637.60 L 774.30 649.00 L 770.30 660.10 L 765.80 670.90 L 760.90 681.50 L 755.50 691.90 L 749.70 702.00 L 743.50 711.90 L 736.90 721.40 L 729.90 730.60 L 722.60 739.60 L 714.80 748.20 L 706.70 756.50 L 698.30 764.40 L 689.60 772.00 L 680.50 779.20 L 671.10 786.10 L 661.40 792.50 L 651.50 798.50 L 641.30 804.20 L 630.80 809.40 L 620.10 814.10 L 609.10 818.40 L 598.00 822.30 L 586.50 825.60 L 574.90 828.50 L 563.10 830.90 L 551.20 832.80 L 539.10 834.10 L 526.80 835.00 L 514.30 835.30 L 501.70 835.00 L 489.40 834.10 L 477.30 832.80 L 465.40 830.90 L 453.60 828.50 L 442.00 825.60 L 430.60 822.30 L 419.40 818.40 L 408.50 814.10 L 397.80 809.40 L 387.20 804.20 L 377.00 798.50 L 367.10 792.50 L 357.40 786.10 L 348.00 779.20 L 338.90 772.00 L 330.20 764.40 L 321.80 756.50 L 313.70 748.20 L 306.00 739.60 L 298.60 730.60 L 291.60 721.40 L 285.00 711.90 L 278.80 702.00 L 273.00 691.90 L 267.60 681.50 L 262.70 670.90 L 258.20 660.10 L 254.20 649.00 L 250.60 637.60 L 240.20 633.40 L 230.20 628.80 L 220.50 623.70 L 211.10 618.20 L 201.90 612.20 L 193.00 605.80 L 184.50 599.00 L 176.30 591.80 L 168.50 584.30 L 161.00 576.30 L 153.90 568.00 L 147.20 559.40 L 140.90 550.50 L 135.00 541.30 L 129.60 531.70 L 124.60 521.90 L 120.10 511.90 L 116.10 501.60 L 112.50 491.00 L 109.50 480.10 L 106.90 469.20 L 105.00 458.10 L 103.50 446.70 L 102.70 435.20 L 102.40 423.30 L 102.60 412.50 L 103.40 401.80 L 104.60 391.30 L 106.30 381.00 L 108.40 370.90 L 111.00 360.80 L 114.00 350.90 L 117.50 341.30 L 121.30 331.90 L 125.60 322.70 L 130.30 313.70 L 135.30 304.90 L 140.70 296.40 L 146.50 288.20 L 152.60 280.20 L 159.10 272.50 L 165.90 265.10 L 173.00 258.00 L 180.30 251.30 L 188.10 244.80 L 196.00 238.70 L 204.30 232.90 L 212.80 227.50 L 221.50 222.50 L 230.60 217.80 L 239.80 213.50 L 249.20 209.60 L 258.80 206.20 L 268.60 203.20 L 278.70 200.60 L 288.80 198.40 L 299.10 196.70 L 309.60 195.50 L 320.30 194.80 L 334.30 194.50 L 326.20 201.80 L 318.60 209.50 L 311.40 217.60 L 304.50 226.10 L 298.20 234.90 L 292.30 244.10 L 286.90 253.50 L 281.90 263.40 L 277.50 273.40 L 273.70 283.80 L 270.40 294.40 L 267.60 305.30 L 265.40 316.30 L 263.80 327.50 L 262.90 339.00 L 262.50 350.80 L 262.80 360.50 L 263.40 370.00 L 264.50 379.30 L 266.00 388.60 L 267.90 397.70 L 270.20 406.70 L 272.90 415.50 L 276.00 424.10 L 281.90 414.30 L 288.10 404.80 L 294.80 395.60 L 301.80 386.70 L 309.20 378.00 L 316.90 369.70 L 324.90 361.70 L 333.30 354.10 L 342.00 346.80 L 351.00 339.90 L 360.20 333.30 L 369.80 327.10 L 379.60 321.30 L 389.60 315.90 L 400.00 310.90 L 410.50 306.30 L 421.30 302.20 L 432.20 298.50 L 443.40 295.30 L 454.90 292.50 L 466.40 290.20 L 478.00 288.40 L 489.90 287.10 L 502.00 286.30 L 514.30 286.00 L 526.50 286.30 L 538.60 287.10 L 550.50 288.40 L 562.10 290.20 L 573.60 292.50 L 585.10 295.30 L 596.30 298.50 L 607.30 302.20 L 618.00 306.30 L 628.50 310.90 L 638.90 315.90 L 649.00 321.30 L 658.70 327.10 L 668.30 333.30 L 677.50 339.90 L 686.60 346.80 L 695.20 354.10 L 703.60 361.70 L 711.60 369.70 L 719.30 378.00 L 726.70 386.70 L 733.70 395.60 L 740.40 404.80 L 746.60 414.30 L 752.50 424.10 L 755.60 415.50 L 758.30 406.70 L 760.60 397.70 L 762.50 388.50 L 764.00 379.30 L 765.10 370.00 L 765.70 360.50 L 766.00 350.80 L 765.60 339.00 L 764.70 327.50 L 763.10 316.30 L 760.90 305.30 L 758.10 294.40 L 754.80 283.80 L 751.00 273.40 L 746.60 263.40 L 741.60 253.50 L 736.20 244.10 L 730.30 234.90 L 724.00 226.10 L 717.10 217.60 L 709.90 209.50 L 702.30 201.80 L 694.20 194.50 L 697.30 194.50 Z" fill="url(#radialGradient-1)" fill-rule="nonzero" group-id="1,2" id="合并形状" node-id="17" stroke="none" target-height="640.8" target-width="823.69995" target-x="102.4" target-y="194.5"></path><path d="M 775.90 208.40 L 772.40 218.30 L 769.70 227.40 L 767.40 236.60 L 765.50 246.00 L 764.00 255.40 L 762.90 264.80 L 762.20 274.30 L 761.90 283.90 L 762.00 293.50 L 762.50 303.10 L 763.40 312.60 L 764.80 322.20 L 767.70 311.50 L 771.00 301.00 L 774.80 290.80 L 779.10 280.80 L 783.80 271.00 L 789.00 261.40 L 794.50 252.20 L 800.50 243.30 L 806.80 234.60 L 813.60 226.20 L 823.40 232.40 L 816.90 240.30 L 810.70 248.60 L 805.00 257.10 L 799.60 265.90 L 794.60 275.10 L 790.00 284.40 L 785.90 293.90 L 782.20 303.70 L 779.00 313.80 L 776.10 324.00 L 794.70 322.10 L 803.90 320.60 L 822.20 316.30 L 831.20 313.60 L 848.90 307.00 L 857.60 303.20 L 866.10 298.90 L 874.50 294.30 L 882.70 289.20 L 889.20 298.70 L 880.30 304.20 L 871.20 309.20 L 862.00 313.80 L 852.60 317.90 L 843.00 321.70 L 833.30 325.00 L 823.60 327.80 L 813.70 330.20 L 803.70 332.20 L 793.70 333.80 L 783.70 334.90 L 773.60 335.60 L 773.30 337.10 L 784.20 341.70 L 795.30 345.70 L 806.60 349.00 L 818.10 351.90 L 827.40 353.70 L 836.80 355.10 L 846.30 356.10 L 855.90 356.60 L 865.70 356.80 L 875.30 356.60 L 885.00 355.90 L 894.80 354.80 L 904.60 353.20 L 914.50 351.20 L 917.90 362.20 L 906.20 364.60 L 894.50 366.40 L 883.00 367.60 L 871.50 368.20 L 859.90 368.20 L 848.50 367.70 L 837.20 366.60 L 826.10 365.00 L 815.00 362.90 L 804.10 360.20 L 793.30 357.10 L 782.80 353.40 L 790.40 361.30 L 798.60 368.90 L 807.20 376.20 L 816.10 383.00 L 825.60 389.40 L 835.50 395.50 L 844.20 400.30 L 853.10 404.70 L 862.00 408.60 L 870.90 412.10 L 880.00 415.10 L 891.50 418.40 L 903.00 421.10 L 914.50 423.10 L 926.10 424.50 L 926.10 423.30 L 925.80 435.90 L 916.00 434.80 L 906.20 433.30 L 896.40 431.40 L 886.60 429.00 L 876.90 426.20 L 867.30 422.90 L 857.80 419.20 L 848.40 415.10 L 839.00 410.50 L 829.70 405.40 L 819.50 399.20 L 809.80 392.50 L 800.50 385.50 L 791.60 378.00 L 783.20 370.20 L 775.20 362.00 L 778.70 371.00 L 782.60 380.00 L 787.00 388.80 L 791.80 397.60 L 797.70 407.30 L 804.00 416.50 L 810.70 425.30 L 817.60 433.60 L 825.00 441.60 L 832.70 449.20 L 840.70 456.30 L 849.00 463.00 L 857.60 469.20 L 866.40 475.10 L 875.50 480.50 L 884.80 485.40 L 894.30 489.90 L 904.00 493.90 L 913.90 497.50 L 909.90 508.20 L 899.50 504.50 L 889.40 500.20 L 879.40 495.50 L 869.70 490.30 L 860.10 484.60 L 850.90 478.50 L 841.90 472.00 L 833.20 464.90 L 824.80 457.40 L 816.70 449.50 L 809.00 441.10 L 801.70 432.40 L 794.70 423.20 L 788.10 413.50 L 781.90 403.30 L 777.50 395.30 L 769.70 379.10 L 770.10 391.00 L 771.10 402.70 L 772.70 414.20 L 774.80 425.40 L 777.60 436.60 L 780.80 447.50 L 784.60 458.00 L 788.90 468.40 L 793.80 478.50 L 799.10 488.30 L 804.80 497.80 L 811.00 507.00 L 817.70 515.90 L 824.80 524.40 L 832.20 532.50 L 840.10 540.30 L 848.40 547.70 L 857.00 554.60 L 865.90 561.10 L 875.20 567.30 L 867.70 576.10 L 859.00 570.20 L 850.50 564.00 L 842.30 557.50 L 834.50 550.60 L 826.90 543.40 L 819.60 535.80 L 812.80 527.90 L 806.20 519.80 L 800.10 511.30 L 794.20 502.50 L 788.80 493.50 L 783.80 484.20 L 779.20 474.70 L 775.10 465.00 L 771.30 454.90 L 768.00 444.80 L 765.20 434.40 L 762.80 423.90 L 760.90 413.10 L 759.50 402.10 L 761.80 392.20 L 763.60 382.20 L 764.90 371.90 L 765.70 361.40 L 766.00 350.80 L 765.70 340.40 L 765.00 330.30 L 763.70 320.30 L 762.00 310.60 L 759.90 300.90 L 757.30 291.40 L 754.30 282.10 L 750.80 273.00 L 751.70 261.40 L 753.30 249.80 L 755.40 238.30 L 758.00 227.00 L 761.20 215.80 L 765.00 204.70 L 775.90 208.40 Z M 724.00 196.00 L 723.90 207.60 L 724.40 217.80 L 725.40 228.00 L 719.20 220.10 L 712.70 212.50 L 712.50 195.00 L 724.00 196.00 Z" fill="url(#radialGradient-2)" fill-rule="nonzero" group-id="1,2" id="合并形状" node-id="18" stroke="none" target-height="381.09998" target-width="213.59998" target-x="712.5" target-y="195"></path><path d="M 277.40 273.80 L 273.70 283.60 L 270.80 292.70 L 268.40 302.00 L 266.30 311.50 L 264.70 321.00 L 263.50 330.80 L 262.80 340.70 L 262.50 350.80 L 262.80 361.20 L 263.60 371.50 L 264.80 381.50 L 266.50 391.40 L 268.70 401.10 L 267.40 412.20 L 265.50 423.00 L 263.20 433.60 L 260.40 444.00 L 257.10 454.20 L 253.40 464.30 L 249.20 474.10 L 244.60 483.60 L 239.60 492.90 L 234.20 502.00 L 228.40 510.80 L 222.20 519.40 L 215.70 527.60 L 208.80 535.50 L 201.60 543.10 L 194.00 550.40 L 186.10 557.30 L 177.90 563.80 L 169.40 570.10 L 160.60 575.90 L 153.10 567.10 L 162.40 561.00 L 171.30 554.50 L 179.90 547.50 L 188.20 540.10 L 196.00 532.40 L 203.50 524.20 L 210.50 515.70 L 217.20 506.90 L 223.40 497.70 L 229.20 488.20 L 234.40 478.40 L 239.30 468.30 L 243.60 458.00 L 247.30 447.40 L 250.60 436.50 L 253.30 425.40 L 255.50 414.10 L 257.10 402.70 L 258.10 391.00 L 258.50 379.10 L 250.70 395.30 L 246.30 403.30 L 240.00 413.50 L 233.50 423.10 L 226.50 432.30 L 219.20 441.10 L 211.60 449.40 L 203.40 457.30 L 195.10 464.80 L 186.40 471.80 L 177.40 478.40 L 168.20 484.50 L 158.70 490.20 L 148.90 495.40 L 139.00 500.10 L 128.90 504.40 L 118.60 508.10 L 114.60 497.40 L 124.50 493.80 L 134.10 489.80 L 143.60 485.30 L 152.80 480.40 L 161.90 475.00 L 170.70 469.10 L 179.30 462.90 L 187.50 456.20 L 195.50 449.10 L 203.30 441.50 L 210.60 433.60 L 217.50 425.30 L 224.20 416.50 L 230.40 407.30 L 236.40 397.60 L 241.20 388.80 L 245.50 380.00 L 249.50 371.00 L 252.90 362.00 L 245.00 370.20 L 236.50 378.00 L 227.60 385.50 L 218.40 392.50 L 208.60 399.20 L 198.40 405.40 L 189.10 410.50 L 179.80 415.10 L 170.40 419.20 L 161.00 422.90 L 151.40 426.10 L 141.70 428.90 L 132.00 431.30 L 122.30 433.30 L 112.50 434.80 L 102.70 435.90 L 102.40 424.40 L 113.90 423.00 L 125.40 421.00 L 136.90 418.40 L 148.40 415.10 L 157.40 412.00 L 166.30 408.50 L 175.10 404.60 L 183.90 400.30 L 192.70 395.50 L 202.60 389.40 L 212.00 383.00 L 221.00 376.20 L 229.60 368.90 L 237.70 361.30 L 245.40 353.40 L 234.80 357.00 L 224.10 360.20 L 213.30 362.90 L 202.20 365.00 L 191.00 366.60 L 179.80 367.70 L 168.40 368.20 L 156.90 368.20 L 145.40 367.60 L 133.90 366.40 L 122.30 364.60 L 110.60 362.20 L 113.90 351.30 L 123.80 353.30 L 133.60 354.80 L 143.40 355.90 L 153.10 356.60 L 162.70 356.80 L 172.40 356.60 L 182.00 356.00 L 191.50 355.00 L 200.80 353.60 L 210.10 351.80 L 221.70 349.00 L 232.90 345.60 L 244.00 341.70 L 254.80 337.10 L 254.50 335.60 L 244.50 334.90 L 234.40 333.80 L 224.50 332.30 L 214.50 330.30 L 204.70 327.80 L 195.00 325.00 L 185.30 321.70 L 175.80 318.00 L 166.40 313.90 L 157.20 309.30 L 148.10 304.30 L 139.20 298.80 L 145.60 289.40 L 153.90 294.40 L 162.30 299.00 L 170.80 303.30 L 179.40 307.10 L 197.10 313.70 L 206.10 316.40 L 224.30 320.60 L 233.50 322.10 L 252.00 324.00 L 249.20 313.80 L 246.00 303.80 L 242.30 294.00 L 238.20 284.50 L 233.60 275.20 L 228.60 266.00 L 223.30 257.20 L 217.50 248.70 L 211.40 240.50 L 204.90 232.50 L 214.70 226.40 L 221.40 234.70 L 227.70 243.40 L 233.70 252.30 L 239.20 261.50 L 244.40 271.10 L 249.10 280.80 L 253.30 290.80 L 257.10 301.00 L 260.50 311.50 L 263.30 322.20 L 264.70 312.60 L 265.70 302.90 L 266.20 293.30 L 266.30 283.60 L 265.90 274.00 L 265.20 264.40 L 264.10 254.90 L 262.50 245.40 L 260.60 236.00 L 258.20 226.70 L 255.50 217.50 L 252.30 208.50 L 263.20 204.80 L 267.00 216.00 L 270.20 227.30 L 272.90 238.70 L 275.00 250.30 L 276.50 262.00 L 277.40 273.80 Z M 315.50 212.90 L 308.40 221.10 L 302.70 228.50 L 303.70 217.80 L 304.20 207.00 L 304.20 196.10 L 315.60 195.00 L 315.50 212.90 Z" fill="url(#radialGradient-3)" fill-rule="nonzero" group-id="1,2" id="合并形状" node-id="19" stroke="none" target-height="380.90002" target-width="213.20001" target-x="102.4" target-y="195"></path><g node-id="47"><path d="M 468.50 720.80 L 474.70 727.00 L 475.70 731.80 L 477.30 736.20 L 479.30 740.40 L 481.80 744.30 L 484.80 747.90 L 488.10 751.10 L 491.80 754.00 L 495.70 756.40 L 500.10 758.30 L 504.60 759.70 L 509.30 760.60 L 514.30 760.90 L 519.20 760.60 L 524.00 759.70 L 528.50 758.30 L 532.80 756.40 L 536.70 754.00 L 540.40 751.10 L 543.80 747.90 L 546.70 744.30 L 549.20 740.40 L 551.20 736.20 L 552.80 731.80 L 553.80 727.00 L 560.00 720.80 L 562.90 717.60 L 565.30 714.10 L 565.70 720.80 L 565.50 726.20 L 564.70 731.30 L 563.40 736.20 L 561.70 740.90 L 559.50 745.40 L 556.90 749.60 L 554.00 753.60 L 550.70 757.20 L 547.00 760.60 L 543.10 763.50 L 538.80 766.10 L 534.30 768.30 L 529.60 770.00 L 524.70 771.30 L 519.60 772.00 L 514.30 772.30 L 508.90 772.00 L 503.80 771.30 L 498.90 770.00 L 494.20 768.30 L 489.70 766.10 L 485.50 763.50 L 481.50 760.60 L 477.80 757.20 L 474.50 753.60 L 471.60 749.60 L 469.00 745.40 L 466.80 740.90 L 465.10 736.20 L 463.80 731.30 L 463.10 726.20 L 462.80 720.80 L 463.20 714.10 L 465.60 717.60 L 468.50 720.80 Z" fill="#ffffff" fill-opacity="0.4" fill-rule="nonzero" group-id="1,2,4" id="合并形状" node-id="20" stroke="none" target-height="58.200012" target-width="102.900024" target-x="462.8" target-y="714.1"></path></g><path d="M 303.20 423.40 L 302.20 425.00" fill="none" group-id="1,2" id="椭圆形-copy-45" node-id="21" stroke="#ffffff" stroke-linecap="round" stroke-width="16.018476" target-height="1.6000061" target-width="1" target-x="302.2" target-y="423.4"></path><path d="M 381.40 346.80 L 372.50 352.60 L 363.90 358.80 L 355.60 365.20 L 347.50 372.10 L 339.70 379.30 L 332.30 386.70 L 325.10 394.50 L 318.30 402.60" fill="none" group-id="1,2" id="椭圆形" node-id="22" stroke="#ffffff" stroke-linecap="round" stroke-width="16.018476" target-height="55.80002" target-width="63.100006" target-x="318.3" target-y="346.8"></path></g><path d="M 546.60 734.20 L 560.00 720.80 L 562.40 718.00 L 564.40 715.10 L 565.90 712.00 L 567.00 708.70 L 567.70 705.30 L 567.90 701.90 L 567.70 698.40 L 567.00 695.10 L 565.90 691.80 L 564.40 688.70 L 562.40 685.70 L 560.00 682.90 L 557.30 680.60 L 554.50 678.60 L 551.30 677.10 L 548.00 676.00 L 544.60 675.30 L 541.10 675.10 L 487.40 675.10 L 483.80 675.30 L 480.30 676.00 L 477.00 677.20 L 473.90 678.70 L 471.10 680.60 L 468.50 682.90 L 466.20 685.50 L 464.30 688.30 L 462.70 691.40 L 461.60 694.70 L 460.90 698.20 L 460.60 701.90 L 460.90 705.40 L 461.60 708.80 L 462.70 712.10 L 464.20 715.30 L 466.10 718.20 L 468.50 720.80 L 481.90 734.20 L 485.40 737.40 L 489.10 740.10 L 493.00 742.40 L 497.00 744.30 L 501.30 745.80 L 505.50 746.80 L 509.90 747.40 L 514.30 747.60 L 518.70 747.40 L 523.00 746.80 L 527.20 745.80 L 531.50 744.30 L 535.50 742.40 L 539.40 740.10 L 543.10 737.40 L 546.60 734.20 Z" fill="#ffffff" fill-opacity="0.2" fill-rule="nonzero" group-id="1,3" id="三角形" node-id="23" stroke="none" target-height="72.5" target-width="107.30002" target-x="460.6" target-y="675.1"></path></g></svg>